<svg width="24" height="24" viewBox="0 0 24 24" fill="none" xmlns="http://www.w3.org/2000/svg">
    <mask id="mask0_4061_18420" style="mask-type:alpha" maskUnits="userSpaceOnUse" x="0" y="0" width="24" height="24">
    <rect width="24" height="24" fill="#D9D9D9"/>
    </mask>
    <g mask="url(#mask0_4061_18420)">
    <path d="M5.20683 3.00918C4.8499 3.06673 4.65032 3.12812 4.36248 3.26241C3.90192 3.48494 3.47591 3.90699 3.25715 4.36741C2.99617 4.91607 3 4.89305 3 7.09155C3 9.29004 2.99617 9.26702 3.25715 9.81569C3.47591 10.2723 3.90576 10.702 4.36631 10.9207C4.9113 11.1778 4.89211 11.1778 7.08742 11.1778C9.28657 11.1778 9.26354 11.1816 9.81237 10.9207C10.2691 10.702 10.6989 10.2723 10.9177 9.81185C11.1748 9.26702 11.1748 9.28621 11.1748 7.09155C11.1748 4.89689 11.1748 4.91607 10.9177 4.37125C10.7104 3.93385 10.2691 3.48494 9.85075 3.27776C9.29425 3.00534 9.35181 3.01302 7.22175 3.00151C6.16631 2.99767 5.26056 3.00151 5.20683 3.00918ZM8.98337 4.68203C9.18678 4.74342 9.43625 4.99281 9.49766 5.19616C9.5629 5.42253 9.5629 8.76056 9.49766 8.98693C9.43625 9.19029 9.18678 9.43968 8.98337 9.50107C8.75693 9.56629 5.41791 9.56629 5.19147 9.50107C4.98806 9.43968 4.72708 9.17877 4.67335 8.98693C4.64648 8.89101 4.63113 8.2119 4.63113 7.09155C4.63113 5.9712 4.64648 5.29208 4.67335 5.19616C4.72324 5.01583 4.99958 4.73191 5.17612 4.67819C5.3757 4.62064 8.78764 4.62448 8.98337 4.68203Z" fill="#2C384B"/>
    <path d="M15.032 3.00918C14.6751 3.06673 14.4755 3.12812 14.1876 3.26241C13.7271 3.48494 13.3011 3.90699 13.0823 4.36741C12.8213 4.91607 12.8252 4.89305 12.8252 7.09155C12.8252 9.29004 12.8213 9.26702 13.0823 9.81569C13.3011 10.2723 13.7309 10.702 14.1915 10.9207C14.7365 11.1778 14.7173 11.1778 16.9126 11.1778C19.1117 11.1778 19.0887 11.1816 19.6375 10.9207C20.0942 10.702 20.5241 10.2723 20.7429 9.81185C21 9.26702 21 9.28621 21 7.09155C21 4.89689 21 4.91607 20.7429 4.37125C20.5356 3.93385 20.0942 3.48494 19.6759 3.27776C19.1194 3.00534 19.177 3.01302 17.0469 3.00151C15.9915 2.99767 15.0857 3.00151 15.032 3.00918ZM18.8085 4.68203C19.0119 4.74342 19.2614 4.99281 19.3228 5.19616C19.3881 5.42253 19.3881 8.76056 19.3228 8.98693C19.2614 9.19029 19.0119 9.43968 18.8085 9.50107C18.5821 9.56629 15.2431 9.56629 15.0166 9.50107C14.8132 9.43968 14.5522 9.17877 14.4985 8.98693C14.4409 8.78358 14.4409 5.39951 14.4985 5.19616C14.5484 5.01583 14.8247 4.73191 15.0013 4.67819C15.2009 4.62064 18.6128 4.62448 18.8085 4.68203Z" fill="#2C384B"/>
    <path d="M5.20683 12.8314C4.8499 12.889 4.65032 12.9504 4.36248 13.0847C3.90192 13.3072 3.47591 13.7292 3.25715 14.1897C2.99617 14.7383 3 14.7153 3 16.9138C3 19.1123 2.99617 19.0893 3.25715 19.6379C3.47591 20.0945 3.90576 20.5242 4.36631 20.7429C4.9113 21 4.89211 21 7.08742 21C9.28657 21 9.26354 21.0038 9.81237 20.7429C10.2691 20.5242 10.6989 20.0945 10.9177 19.6341C11.1748 19.0893 11.1748 19.1084 11.1748 16.9138C11.1748 14.7191 11.1748 14.7383 10.9177 14.1935C10.7104 13.7561 10.2691 13.3072 9.85075 13.1C9.29425 12.8276 9.35181 12.8353 7.22175 12.8237C6.16631 12.8199 5.26056 12.8237 5.20683 12.8314ZM8.98337 14.5043C9.18678 14.5657 9.43625 14.8151 9.49766 15.0184C9.5629 15.2448 9.5629 18.5828 9.49766 18.8092C9.43625 19.0125 9.18678 19.2619 8.98337 19.3233C8.75693 19.3885 5.41791 19.3885 5.19147 19.3233C4.98806 19.2619 4.72708 19.001 4.67335 18.8092C4.64648 18.7133 4.63113 18.0341 4.63113 16.9138C4.63113 15.7934 4.64648 15.1143 4.67335 15.0184C4.72324 14.8381 4.99958 14.5542 5.17612 14.5004C5.3757 14.4429 8.78764 14.4467 8.98337 14.5043Z" fill="#2C384B"/>
    <path d="M15.032 12.8314C14.6751 12.889 14.4755 12.9504 14.1876 13.0847C13.7271 13.3072 13.3011 13.7292 13.0823 14.1897C12.8213 14.7383 12.8252 14.7153 12.8252 16.9138C12.8252 19.1123 12.8213 19.0893 13.0823 19.6379C13.3011 20.0945 13.7309 20.5242 14.1915 20.7429C14.7365 21 14.7173 21 16.9126 21C19.1117 21 19.0887 21.0038 19.6375 20.7429C20.0942 20.5242 20.5241 20.0945 20.7429 19.6341C21 19.0893 21 19.1084 21 16.9138C21 14.7191 21 14.7383 20.7429 14.1935C20.5356 13.7561 20.0942 13.3072 19.6759 13.1C19.1194 12.8276 19.177 12.8353 17.0469 12.8237C15.9915 12.8199 15.0857 12.8237 15.032 12.8314ZM18.8085 14.5043C19.0119 14.5657 19.2614 14.8151 19.3228 15.0184C19.3881 15.2448 19.3881 18.5828 19.3228 18.8092C19.2614 19.0125 19.0119 19.2619 18.8085 19.3233C18.5821 19.3885 15.2431 19.3885 15.0166 19.3233C14.8132 19.2619 14.5522 19.001 14.4985 18.8092C14.4409 18.6058 14.4409 15.2218 14.4985 15.0184C14.5484 14.8381 14.8247 14.5542 15.0013 14.5004C15.2009 14.4429 18.6128 14.4467 18.8085 14.5043Z" fill="#2C384B"/>
    </g>
    </svg>
    