<svg width="20" height="21" viewBox="0 0 20 21" fill="none" xmlns="http://www.w3.org/2000/svg">
    <path d="M11.0256 9.42343C11.0256 10.0175 10.5662 10.4996 10 10.4996C9.43385 10.4996 8.97436 10.0175 8.97436 9.42343C8.97436 8.8294 9.43385 8.34729 10 8.34729C10.5662 8.34729 11.0256 8.8294 11.0256 9.42343ZM20 12.6518V19.1087C20 20.1471 19.1949 20.9919 18.2051 20.9919H1.79487C0.805128 20.9919 0 20.1471 0 19.1087V12.6518C0 11.0193 1.26462 9.69246 2.82051 9.69246H4.10256V8.49042C4.10256 7.45733 4.62769 6.48557 5.47077 5.95288L9.23077 3.58646V0.815404C9.23077 0.369883 9.57539 0.00830078 10 0.00830078C10.4246 0.00830078 10.7692 0.369883 10.7692 0.815404V1.08444H12.0513C12.4759 1.08444 12.8205 1.44602 12.8205 1.89154C12.8205 2.33706 12.4759 2.69864 12.0513 2.69864H10.7692V3.58646L14.5282 5.95181C15.3723 6.48557 15.8974 7.45733 15.8974 8.49042V9.69246H17.1795C18.7354 9.69246 20 11.0193 20 12.6518ZM4.10256 11.3067H2.82051C2.11385 11.3067 1.53846 11.9104 1.53846 12.6518V19.1087C1.53846 19.2572 1.65333 19.3777 1.79487 19.3777H4.10256V11.3067ZM11.2821 14.8041C11.2821 14.6556 11.1672 14.5351 11.0256 14.5351H8.97436C8.83282 14.5351 8.71795 14.6556 8.71795 14.8041V19.3777H11.2821V14.8041ZM14.359 8.49042C14.359 8.02015 14.121 7.57785 13.7364 7.33572L10 4.98436L6.26256 7.3368C5.87897 7.57893 5.64103 8.02122 5.64103 8.49042V19.3777H7.17949V14.8041C7.17949 13.7656 7.98462 12.9209 8.97436 12.9209H11.0256C12.0154 12.9209 12.8205 13.7656 12.8205 14.8041V19.3777H14.359V8.49042ZM18.4615 12.6518C18.4615 11.9104 17.8862 11.3067 17.1795 11.3067H15.8974V19.3777H18.2051C18.3467 19.3777 18.4615 19.2572 18.4615 19.1087V12.6518Z" fill="#2C384B"/>
    </svg>
    