<svg width="32" height="32" viewBox="0 0 32 32" fill="none" xmlns="http://www.w3.org/2000/svg">
    <mask id="mask0_4061_18398" style="mask-type:alpha" maskUnits="userSpaceOnUse" x="0" y="0"
        width="32" height="32">
        <rect width="32" height="32" fill="#D9D9D9" />
    </mask>
    <g mask="url(#mask0_4061_18398)">
        <path
            d="M5.27778 14.6667H25.7222C26.4889 14.6667 27 15.2 27 16C27 16.8 26.4889 17.3333 25.7222 17.3333H5.27778C4.51111 17.3333 4 16.8 4 16C4 15.2 4.51111 14.6667 5.27778 14.6667ZM25.7222 10.6667H5.27778C4.51111 10.6667 4 10.1333 4 9.33333C4 8.53333 4.51111 8 5.27778 8H25.7222C26.4889 8 27 8.53333 27 9.33333C27 10.1333 26.4889 10.6667 25.7222 10.6667ZM5.27778 21.3333H25.7222C26.4889 21.3333 27 21.8667 27 22.6667C27 23.4667 26.4889 24 25.7222 24H5.27778C4.51111 24 4 23.4667 4 22.6667C4 21.8667 4.51111 21.3333 5.27778 21.3333Z"
            fill="#2C384B" />
    </g>
</svg>
    