<svg width="24" height="24" viewBox="0 0 24 24" fill="none" xmlns="http://www.w3.org/2000/svg">
    <path
        d="M11.0761 0.0261652C9.37259 0.199664 8.10552 0.55604 6.71175 1.23597C5.48691 1.84087 4.60466 2.46453 3.61916 3.41643C2.60081 4.41053 1.84996 5.44215 1.22112 6.72698C0.634512 7.91802 0.30132 8.98715 0.0854496 10.3611C-0.0365643 11.1629 -0.0271786 12.9307 0.108914 13.7607C0.230928 14.5157 0.460877 15.4301 0.578198 15.627C0.836305 16.0772 1.51677 16.1147 1.81711 15.6973C1.97197 15.4723 1.97197 15.2284 1.81711 14.6048C1.559 13.5872 1.50269 13.1089 1.50738 12.0023C1.50738 10.8956 1.5637 10.3892 1.81242 9.40449C2.73221 5.73756 5.71686 2.75057 9.38667 1.83618C10.3862 1.58297 10.879 1.5267 11.9912 1.5267C12.728 1.5267 13.1409 1.54545 13.5258 1.60641C14.8867 1.82211 16.1491 2.26758 17.2753 2.92876L17.7258 3.19604L16.9046 4.02133C16.2148 4.71533 16.074 4.88414 16.0317 5.04826C15.9285 5.42808 16.1068 5.79383 16.4635 5.92982C16.6371 5.99547 16.9468 6.00016 19.0868 5.99078C21.4614 5.97671 21.513 5.97671 21.6444 5.87824C21.7148 5.82666 21.8227 5.70943 21.8837 5.62502L21.9869 5.47028V0.527905L21.8837 0.373163C21.6538 0.0355436 21.2689 -0.0910638 20.9498 0.0683677C20.8607 0.11057 20.3445 0.593554 19.8001 1.13281L18.8052 2.12222L18.3453 1.8268C17.7822 1.47512 16.7357 0.959308 16.1068 0.729539C15.4498 0.485703 14.4925 0.246556 13.7651 0.134016C13.1644 0.0449219 11.5407 -0.0207264 11.0761 0.0261652Z"
        fill="white" />
    <path
        d="M11.6627 7.07397C10.1375 7.71639 5.32736 9.8734 5.24288 9.94843C4.91439 10.2579 4.91439 10.7456 5.24288 11.0504C5.2992 11.1067 6.79622 11.7866 8.56542 12.5697C11.2075 13.7326 11.8176 13.9811 11.9912 13.9858C12.1648 13.9858 12.742 13.7466 15.417 12.5697C17.1862 11.7913 18.6832 11.1067 18.7395 11.0504C19.0727 10.7409 19.068 10.2579 18.7348 9.94843C18.5893 9.80775 12.2587 7.02708 12.0381 7.00364C11.9443 6.99426 11.7847 7.02239 11.6627 7.07397Z"
        fill="white" />
    <path
        d="M22.4187 8.09621C22.0292 8.28847 21.9635 8.60733 22.1653 9.3998C22.4187 10.408 22.475 10.8956 22.475 12.0023C22.475 13.1417 22.414 13.6388 22.1465 14.6751C21.4567 17.3292 19.7203 19.6175 17.3129 21.0524C16.1913 21.7182 14.9195 22.1684 13.5164 22.3935C12.789 22.5154 11.1793 22.5154 10.466 22.3982C9.04878 22.1637 7.83333 21.737 6.71174 21.0758L6.25654 20.8085L7.07779 19.9785C7.76294 19.2892 7.90842 19.1204 7.95066 18.9516C8.0492 18.5859 7.86149 18.206 7.51891 18.0747C7.34528 18.0091 7.03555 18.0044 4.89561 18.0138C2.52104 18.0279 2.46941 18.0279 2.33801 18.1263C2.26762 18.1779 2.15969 18.2951 2.10337 18.3795L1.99544 18.5343V20.9914C1.99544 23.683 1.98605 23.5892 2.27701 23.833C2.46003 23.9878 2.69936 24.0347 2.94808 23.9596C3.10764 23.9128 3.3282 23.7205 4.16353 22.8952L5.17718 21.8823L5.64178 22.1778C7.40159 23.2891 9.45706 23.9128 11.6158 23.9925C13.6243 24.0628 15.5437 23.6408 17.3645 22.717C18.641 22.0746 19.6311 21.3478 20.6073 20.3349C21.5224 19.3924 22.1747 18.4686 22.7566 17.2963C23.8406 15.1159 24.2301 12.6447 23.8688 10.2438C23.7562 9.51703 23.5262 8.58388 23.4042 8.37756C23.2118 8.04463 22.7753 7.91802 22.4187 8.09621Z"
        fill="white" />
    <path
        d="M6.97924 14.0514C7.01678 14.8158 7.21857 15.2425 7.72071 15.6176C8.08675 15.8943 9.21772 16.4335 9.84656 16.6399C10.6678 16.9025 11.184 16.9869 11.9912 16.9869C13.1503 16.9869 14.0936 16.7477 15.3513 16.1287C16.3462 15.6364 16.67 15.3597 16.8811 14.8064C16.9985 14.4969 17.0642 13.5497 16.9656 13.5497C16.9328 13.5497 15.9754 13.9577 14.8351 14.4594C13.6947 14.9611 12.6717 15.3925 12.5543 15.4254C12.2821 15.5004 11.7002 15.5004 11.4327 15.4254C11.3154 15.3972 10.2924 14.9611 9.15672 14.4594C8.01636 13.9577 7.05902 13.5497 7.02147 13.5497C6.96985 13.5497 6.96046 13.6388 6.97924 14.0514Z"
        fill="white" />
</svg>
